<?xml version="1.0" encoding="UTF-8" standalone="no"?>
<!-- Created with Inkscape (http://www.inkscape.org/) -->

<svg
   xmlns:dc="http://purl.org/dc/elements/1.1/"
   xmlns:cc="http://creativecommons.org/ns#"
   xmlns:rdf="http://www.w3.org/1999/02/22-rdf-syntax-ns#"
   xmlns:svg="http://www.w3.org/2000/svg"
   xmlns="http://www.w3.org/2000/svg"
   xmlns:sodipodi="http://sodipodi.sourceforge.net/DTD/sodipodi-0.dtd"
   xmlns:inkscape="http://www.inkscape.org/namespaces/inkscape"
   width="180"
   height="152"
   id="svg2"
   version="1.1"
   inkscape:version="0.48.4 r9939"
   sodipodi:docname="Sadfacevectpr.svg">
  <defs
     id="defs4" />
  <sodipodi:namedview
     id="base"
     pagecolor="#ffffff"
     bordercolor="#666666"
     borderopacity="1.0"
     inkscape:pageopacity="0.0"
     inkscape:pageshadow="2"
     inkscape:zoom="1"
     inkscape:cx="50.213344"
     inkscape:cy="74.498109"
     inkscape:document-units="px"
     inkscape:current-layer="layer1"
     showgrid="false"
     inkscape:window-width="1368"
     inkscape:window-height="1021"
     inkscape:window-x="223"
     inkscape:window-y="31"
     inkscape:window-maximized="0"
     fit-margin-top="0"
     fit-margin-left="0"
     fit-margin-right="0"
     fit-margin-bottom="0" />
  <metadata
     id="metadata7">
    <rdf:RDF>
      <cc:Work
         rdf:about="">
        <dc:format>image/svg+xml</dc:format>
        <dc:type
           rdf:resource="http://purl.org/dc/dcmitype/StillImage" />
        <dc:title />
      </cc:Work>
    </rdf:RDF>
  </metadata>
  <g
     inkscape:label="Layer 1"
     inkscape:groupmode="layer"
     id="layer1"
     transform="translate(0,-900.36218)">
    <g
       id="g3131"
       transform="translate(-59.868376,89.88624)">
      <path
         sodipodi:nodetypes="ssssssssscssssssssc"
         inkscape:connector-curvature="0"
         id="path2991"
         d="m 99.99647,812.35508 c -8.370296,0 -15.894387,5.66907 -21.289867,14.72398 C 73.311122,836.13397 70,848.60873 70,862.35863 c 0,13.74991 3.311122,26.19244 8.706603,35.24735 5.39548,9.05491 12.919571,14.7562 21.289867,14.7562 8.3703,0 16.25351,-4.62392 21.64899,-13.67883 5.39548,-9.05491 8.34748,-22.57481 8.34748,-36.32472 0,-13.7499 -3.31112,-26.22466 -8.7066,-35.27957 -5.39548,-9.05491 -12.91957,-14.72398 -21.28987,-14.72398 z m 4.38637,29.89616 c 9.47197,-2.82992 17.69098,-6.81149 18.15722,-5.73754 4.10544,9.45654 4.99956,12.44288 4.99956,26.02447 0,13.5816 -2.55238,25.66383 -7.82948,34.52007 -5.2771,8.85624 -11.43904,12.83643 -19.35455,12.83643 -7.915506,0 -14.436567,-4.51887 -19.713668,-13.37511 -5.277101,-8.85624 -7.821593,-20.58431 -8.1886,-34.16095 -0.282992,-10.46868 8.291826,-11.52186 10.224141,-11.95102 3.408173,-0.75694 -0.294931,-0.0398 7.131306,-2.77953 z"
         style="font-size:medium;font-style:normal;font-variant:normal;font-weight:normal;font-stretch:normal;text-indent:0;text-align:start;text-decoration:none;line-height:normal;letter-spacing:normal;word-spacing:normal;text-transform:none;direction:ltr;block-progression:tb;writing-mode:lr-tb;text-anchor:start;baseline-shift:baseline;color:#000000;fill:#000000;fill-opacity:1;fill-rule:nonzero;stroke:none;stroke-width:1;marker:none;visibility:visible;display:inline;overflow:visible;enable-background:accumulate;font-family:Sans;-inkscape-font-specification:Sans" />
      <path
         inkscape:connector-curvature="0"
         id="path2993"
         d="m 124.71875,834.8125 -53.40625,19.09375 0.34375,0.9375 53.375,-19.0625 -0.3125,-0.96875 z"
         style="font-size:medium;font-style:normal;font-variant:normal;font-weight:normal;font-stretch:normal;text-indent:0;text-align:start;text-decoration:none;line-height:normal;letter-spacing:normal;word-spacing:normal;text-transform:none;direction:ltr;block-progression:tb;writing-mode:lr-tb;text-anchor:start;baseline-shift:baseline;color:#000000;fill:#000000;fill-opacity:1;stroke:none;stroke-width:1px;marker:none;visibility:visible;display:inline;overflow:visible;enable-background:accumulate;font-family:Sans;-inkscape-font-specification:Sans" />
      <path
         sodipodi:nodetypes="ccccccccccccccccccccc"
         inkscape:connector-curvature="0"
         id="path3021"
         d="m 151.52463,935.0694 c -78.88191,13.50848 -91.656254,26.5 -91.656254,26.5 l 0.5625,0.8125 c 0,0 -0.754654,-27.01128 91.093754,-26.3125 0.0108,1.2e-4 0.0205,-1.2e-4 0.0312,0 88.9006,-0.62692 88.03125,25.96875 88.03125,25.96875 0.0841,0.085 0.11773,0.14656 0.125,0.15625 0.004,0.005 0.005,0.0204 -0.0312,-0.0937 -0.009,-0.0285 -0.0299,-0.0611 -0.0312,-0.125 -10e-4,-0.0639 0.0946,-0.25141 0.0937,-0.25 -8.3e-4,0.001 0.25172,-0.21938 0.25,-0.21875 -0.002,6.3e-4 0.14311,-0.0338 0.1875,-0.0312 l -0.0625,1 c 0.0496,0.003 0.21703,-0.0306 0.21875,-0.0312 0.002,-6.3e-4 0.24917,-0.21734 0.25,-0.21875 8.3e-4,-0.001 0.064,-0.21303 0.0625,-0.28125 -0.001,-0.0682 0.0108,-0.0906 0,-0.125 -0.0434,-0.13774 -0.0929,-0.17598 -0.125,-0.21875 -0.0641,-0.0855 -0.11804,-0.14825 -0.21875,-0.25 0,0 -12.23209,-13.27215 -88.75,-26.28125 -0.0104,1.2e-4 -0.0211,-1e-4 -0.0312,-1.5e-4 z"
         style="font-size:medium;font-style:normal;font-variant:normal;font-weight:normal;font-stretch:normal;text-indent:0;text-align:start;text-decoration:none;line-height:normal;letter-spacing:normal;word-spacing:normal;text-transform:none;direction:ltr;block-progression:tb;writing-mode:lr-tb;text-anchor:start;baseline-shift:baseline;color:#000000;fill:#000000;fill-opacity:1;stroke:none;stroke-width:1px;marker:none;visibility:visible;display:inline;overflow:visible;enable-background:accumulate;font-family:Sans;-inkscape-font-specification:Sans" />
      <path
         sodipodi:nodetypes="ssssssssscssssssssc"
         inkscape:connector-curvature="0"
         id="path2991-9"
         d="m 199.99647,812.35508 c 8.3703,0 15.89439,5.66907 21.28987,14.72398 5.39548,9.05491 8.7066,21.52967 8.7066,35.27957 0,13.74991 -3.31112,26.19244 -8.7066,35.24735 -5.39548,9.05491 -12.91957,14.7562 -21.28987,14.7562 -8.3703,0 -16.25351,-4.62392 -21.64899,-13.67883 C 172.952,889.62844 170,876.10854 170,862.35863 c 0,-13.7499 3.31112,-26.22466 8.7066,-35.27957 5.39548,-9.05491 12.91957,-14.72398 21.28987,-14.72398 z m -4.38637,29.89616 c -9.47197,-2.82992 -17.69098,-6.81149 -18.15722,-5.73754 -4.10544,9.45654 -4.99956,12.44288 -4.99956,26.02447 0,13.5816 2.55238,25.66383 7.82948,34.52007 5.2771,8.85624 11.43904,12.83643 19.35455,12.83643 7.91551,0 14.43657,-4.51887 19.71367,-13.37511 5.2771,-8.85624 7.82159,-20.58431 8.1886,-34.16095 0.28299,-10.46868 -8.29183,-11.52186 -10.22414,-11.95102 -3.40818,-0.75694 0.29493,-0.0398 -7.13131,-2.77953 z"
         style="font-size:medium;font-style:normal;font-variant:normal;font-weight:normal;font-stretch:normal;text-indent:0;text-align:start;text-decoration:none;line-height:normal;letter-spacing:normal;word-spacing:normal;text-transform:none;direction:ltr;block-progression:tb;writing-mode:lr-tb;text-anchor:start;baseline-shift:baseline;color:#000000;fill:#000000;fill-opacity:1;fill-rule:nonzero;stroke:none;stroke-width:1;marker:none;visibility:visible;display:inline;overflow:visible;enable-background:accumulate;font-family:Sans;-inkscape-font-specification:Sans" />
      <path
         inkscape:connector-curvature="0"
         id="path2993-5"
         d="m 176.20157,834.79928 53.40625,19.09375 -0.34375,0.9375 -53.375,-19.0625 0.3125,-0.96875 z"
         style="font-size:medium;font-style:normal;font-variant:normal;font-weight:normal;font-stretch:normal;text-indent:0;text-align:start;text-decoration:none;line-height:normal;letter-spacing:normal;word-spacing:normal;text-transform:none;direction:ltr;block-progression:tb;writing-mode:lr-tb;text-anchor:start;baseline-shift:baseline;color:#000000;fill:#000000;fill-opacity:1;stroke:none;stroke-width:1px;marker:none;visibility:visible;display:inline;overflow:visible;enable-background:accumulate;font-family:Sans;-inkscape-font-specification:Sans" />
    </g>
  </g>
</svg>
